<mxfile host="app.diagrams.net" modified="2024-01-22T06:33:16.895Z" agent="Mozilla/5.0 (Windows NT 10.0; Win64; x64) AppleWebKit/537.36 (KHTML, like Gecko) Chrome/120.0.0.0 Safari/537.36" version="22.1.21" etag="ruhcai-fZP7SdxnDaukc" type="github">
  <diagram name="Page-1" id="d0c5LPlOSGW6is3HsgDt">
    <mxGraphModel>
      <root>
        <mxCell id="0" />
        <mxCell id="1" parent="0" />
      </root>
    </mxGraphModel>
  </diagram>
</mxfile>
